<svg xmlns="http://www.w3.org/2000/svg" width="40" height="40"><path fill="#ff3b30" d="M20 6c.7 0 1 .3 1.1.5l13.8 25.2v.5c0 .4-.4.8-.8.8H5.8c-.4 0-.8-.4-.8-.8 0-.1 0-.2.1-.3l.2-.6L18.9 6.4c.1-.1.4-.4 1.1-.4m0-2c-1.8 0-2.7 1.2-2.8 1.4l-14 25.5c-.1.1 0 .2 0 .3-.1.3-.2.7-.2 1C3 33.7 4.3 35 5.8 35h28.3c1.6 0 2.8-1.3 2.8-2.8v-.4c0-.1-.1-.2-.1-.4 0-.1 0-.3-.1-.4L22.8 5.4c-.1-.2-1-1.4-2.8-1.4z"/><path fill-rule="evenodd" clip-rule="evenodd" fill="#ff3b30" d="M20 13c-1.1 0-2 .8-2 2v7c0 1.2.9 2 2 2s2-.8 2-2v-7c0-1.2-.9-2-2-2zm0 13c-1.1 0-2 .9-2 2s.9 2 2 2 2-.9 2-2-.9-2-2-2z"/></svg>